<svg xmlns="http://www.w3.org/2000/svg" xmlns:xlink="http://www.w3.org/1999/xlink" width="500" zoomAndPan="magnify" viewBox="0 0 375 374.999991" height="500" preserveAspectRatio="xMidYMid meet" version="1.0"><defs><g/></defs><rect x="-37.5" width="450" fill="#ffffff" y="-37.499999" height="449.999989" fill-opacity="1"/><rect x="-37.5" width="450" fill="#ffffff" y="-37.499999" height="449.999989" fill-opacity="1"/><rect x="-37.5" width="450" fill="#f5f2ed" y="-37.499999" height="449.999989" fill-opacity="1"/><g fill="#86631f" fill-opacity="1"><g transform="translate(62.012352, 238.617464)"><g><path d="M 1.96875 0 L 1.96875 -10.578125 L 5.4375 -10.578125 C 6.269531 -10.578125 7.035156 -10.441406 7.734375 -10.171875 C 8.429688 -9.910156 9.03125 -9.546875 9.53125 -9.078125 C 10.03125 -8.609375 10.414062 -8.050781 10.6875 -7.40625 C 10.96875 -6.757812 11.109375 -6.0625 11.109375 -5.3125 C 11.109375 -4.539062 10.960938 -3.828125 10.671875 -3.171875 C 10.390625 -2.523438 10 -1.960938 9.5 -1.484375 C 9 -1.015625 8.414062 -0.648438 7.75 -0.390625 C 7.082031 -0.128906 6.375 0 5.625 0 Z M 3.34375 -0.671875 L 5 -0.671875 C 5.820312 -0.671875 6.523438 -0.804688 7.109375 -1.078125 C 7.691406 -1.359375 8.164062 -1.71875 8.53125 -2.15625 C 8.90625 -2.601562 9.175781 -3.097656 9.34375 -3.640625 C 9.519531 -4.191406 9.609375 -4.738281 9.609375 -5.28125 C 9.609375 -5.882812 9.503906 -6.46875 9.296875 -7.03125 C 9.097656 -7.59375 8.804688 -8.085938 8.421875 -8.515625 C 8.035156 -8.941406 7.554688 -9.28125 6.984375 -9.53125 C 6.410156 -9.78125 5.75 -9.90625 5 -9.90625 L 3.34375 -9.90625 Z M 3.34375 -0.671875 "/></g></g></g><g fill="#86631f" fill-opacity="1"><g transform="translate(78.153169, 238.617464)"><g><path d="M 2.421875 -10.578125 L 2.421875 0 L 3.796875 0 L 3.796875 -10.578125 Z M 2.421875 -10.578125 "/></g></g></g><g fill="#86631f" fill-opacity="1"><g transform="translate(88.95082, 238.617464)"><g><path d="M 7.6875 -3.109375 L 9.140625 0 L 10.609375 0 L 5.6875 -10.578125 L 4.921875 -10.578125 L 0.453125 0 L 1.140625 0 L 2.484375 -3.109375 Z M 7.375 -3.796875 L 2.765625 -3.796875 L 4.9375 -8.890625 L 5 -8.890625 Z M 7.375 -3.796875 "/></g></g></g><g fill="#86631f" fill-opacity="1"><g transform="translate(104.593545, 238.617464)"><g><path d="M 2.84375 -10.578125 L 1.8125 -10.578125 L 1.8125 0 L 2.484375 0 L 2.484375 -8.625 L 2.53125 -8.625 L 7.203125 0.1875 L 7.484375 0.1875 L 12.25 -8.5625 L 12.3125 -8.5625 L 12.3125 0 L 13.6875 0 L 13.6875 -10.578125 L 12.640625 -10.578125 L 7.75 -1.5 L 7.6875 -1.5 Z M 2.84375 -10.578125 "/></g></g></g><g fill="#86631f" fill-opacity="1"><g transform="translate(124.67382, 238.617464)"><g><path d="M 0.75 -5.28125 C 0.75 -4.71875 0.859375 -4.113281 1.078125 -3.46875 C 1.296875 -2.832031 1.632812 -2.242188 2.09375 -1.703125 C 2.5625 -1.160156 3.148438 -0.707031 3.859375 -0.34375 C 4.578125 0.0078125 5.4375 0.1875 6.4375 0.1875 C 7.113281 0.1875 7.722656 0.101562 8.265625 -0.0625 C 8.816406 -0.226562 9.3125 -0.453125 9.75 -0.734375 C 10.1875 -1.015625 10.566406 -1.335938 10.890625 -1.703125 C 11.210938 -2.078125 11.476562 -2.46875 11.6875 -2.875 C 11.894531 -3.28125 12.050781 -3.691406 12.15625 -4.109375 C 12.257812 -4.523438 12.3125 -4.914062 12.3125 -5.28125 C 12.3125 -5.851562 12.195312 -6.457031 11.96875 -7.09375 C 11.738281 -7.726562 11.378906 -8.316406 10.890625 -8.859375 C 10.410156 -9.410156 9.800781 -9.863281 9.0625 -10.21875 C 8.320312 -10.582031 7.445312 -10.765625 6.4375 -10.765625 C 5.4375 -10.765625 4.578125 -10.585938 3.859375 -10.234375 C 3.148438 -9.878906 2.5625 -9.429688 2.09375 -8.890625 C 1.632812 -8.347656 1.296875 -7.753906 1.078125 -7.109375 C 0.859375 -6.472656 0.75 -5.863281 0.75 -5.28125 Z M 2.234375 -5.28125 C 2.234375 -5.988281 2.34375 -6.632812 2.5625 -7.21875 C 2.78125 -7.8125 3.078125 -8.320312 3.453125 -8.75 C 3.828125 -9.175781 4.269531 -9.503906 4.78125 -9.734375 C 5.300781 -9.972656 5.863281 -10.09375 6.46875 -10.09375 C 7.0625 -10.09375 7.617188 -9.972656 8.140625 -9.734375 C 8.671875 -9.503906 9.132812 -9.175781 9.53125 -8.75 C 9.9375 -8.320312 10.253906 -7.8125 10.484375 -7.21875 C 10.710938 -6.632812 10.828125 -5.988281 10.828125 -5.28125 C 10.828125 -4.582031 10.710938 -3.9375 10.484375 -3.34375 C 10.253906 -2.757812 9.9375 -2.253906 9.53125 -1.828125 C 9.132812 -1.398438 8.671875 -1.066406 8.140625 -0.828125 C 7.617188 -0.597656 7.0625 -0.484375 6.46875 -0.484375 C 5.863281 -0.484375 5.300781 -0.597656 4.78125 -0.828125 C 4.269531 -1.066406 3.828125 -1.398438 3.453125 -1.828125 C 3.078125 -2.253906 2.78125 -2.757812 2.5625 -3.34375 C 2.34375 -3.9375 2.234375 -4.582031 2.234375 -5.28125 Z M 2.234375 -5.28125 "/></g></g></g><g fill="#86631f" fill-opacity="1"><g transform="translate(142.324007, 238.617464)"><g><path d="M 10.328125 -10.578125 L 10.328125 -2.5 L 10.28125 -2.5 L 1.890625 -10.765625 L 1.8125 -10.765625 L 1.8125 0 L 2.515625 0 L 2.515625 -8.078125 L 2.5625 -8.078125 L 10.953125 0.1875 L 11.03125 0.1875 L 11.03125 -10.578125 Z M 10.328125 -10.578125 "/></g></g></g><g fill="#86631f" fill-opacity="1"><g transform="translate(159.747785, 238.617464)"><g><path d="M 1.96875 0 L 1.96875 -10.578125 L 5.4375 -10.578125 C 6.269531 -10.578125 7.035156 -10.441406 7.734375 -10.171875 C 8.429688 -9.910156 9.03125 -9.546875 9.53125 -9.078125 C 10.03125 -8.609375 10.414062 -8.050781 10.6875 -7.40625 C 10.96875 -6.757812 11.109375 -6.0625 11.109375 -5.3125 C 11.109375 -4.539062 10.960938 -3.828125 10.671875 -3.171875 C 10.390625 -2.523438 10 -1.960938 9.5 -1.484375 C 9 -1.015625 8.414062 -0.648438 7.75 -0.390625 C 7.082031 -0.128906 6.375 0 5.625 0 Z M 3.34375 -0.671875 L 5 -0.671875 C 5.820312 -0.671875 6.523438 -0.804688 7.109375 -1.078125 C 7.691406 -1.359375 8.164062 -1.71875 8.53125 -2.15625 C 8.90625 -2.601562 9.175781 -3.097656 9.34375 -3.640625 C 9.519531 -4.191406 9.609375 -4.738281 9.609375 -5.28125 C 9.609375 -5.882812 9.503906 -6.46875 9.296875 -7.03125 C 9.097656 -7.59375 8.804688 -8.085938 8.421875 -8.515625 C 8.035156 -8.941406 7.554688 -9.28125 6.984375 -9.53125 C 6.410156 -9.78125 5.75 -9.90625 5 -9.90625 L 3.34375 -9.90625 Z M 3.34375 -0.671875 "/></g></g></g><g fill="#86631f" fill-opacity="1"><g transform="translate(175.8886, 238.617464)"><g><path d="M 0.5625 -2.671875 C 0.582031 -2.242188 0.691406 -1.851562 0.890625 -1.5 C 1.097656 -1.144531 1.378906 -0.84375 1.734375 -0.59375 C 2.097656 -0.351562 2.519531 -0.160156 3 -0.015625 C 3.488281 0.117188 4.019531 0.1875 4.59375 0.1875 C 5.175781 0.1875 5.703125 0.117188 6.171875 -0.015625 C 6.640625 -0.160156 7.039062 -0.363281 7.375 -0.625 C 7.707031 -0.894531 7.960938 -1.210938 8.140625 -1.578125 C 8.328125 -1.953125 8.421875 -2.367188 8.421875 -2.828125 C 8.421875 -3.453125 8.265625 -3.960938 7.953125 -4.359375 C 7.640625 -4.753906 7.25 -5.082031 6.78125 -5.34375 C 6.3125 -5.613281 5.800781 -5.835938 5.25 -6.015625 C 4.695312 -6.203125 4.1875 -6.394531 3.71875 -6.59375 C 3.25 -6.800781 2.859375 -7.035156 2.546875 -7.296875 C 2.234375 -7.554688 2.078125 -7.90625 2.078125 -8.34375 C 2.078125 -8.582031 2.128906 -8.804688 2.234375 -9.015625 C 2.347656 -9.234375 2.503906 -9.421875 2.703125 -9.578125 C 2.910156 -9.734375 3.164062 -9.859375 3.46875 -9.953125 C 3.769531 -10.046875 4.117188 -10.09375 4.515625 -10.09375 C 5.171875 -10.09375 5.726562 -9.953125 6.1875 -9.671875 C 6.644531 -9.398438 6.914062 -8.96875 7 -8.375 L 8.015625 -8.375 C 7.960938 -8.738281 7.828125 -9.070312 7.609375 -9.375 C 7.398438 -9.675781 7.132812 -9.925781 6.8125 -10.125 C 6.488281 -10.332031 6.125 -10.488281 5.71875 -10.59375 C 5.3125 -10.707031 4.882812 -10.765625 4.4375 -10.765625 C 3.976562 -10.765625 3.539062 -10.703125 3.125 -10.578125 C 2.707031 -10.453125 2.335938 -10.273438 2.015625 -10.046875 C 1.703125 -9.816406 1.453125 -9.523438 1.265625 -9.171875 C 1.078125 -8.816406 0.984375 -8.414062 0.984375 -7.96875 C 0.984375 -7.375 1.132812 -6.894531 1.4375 -6.53125 C 1.738281 -6.164062 2.117188 -5.863281 2.578125 -5.625 C 3.035156 -5.382812 3.53125 -5.175781 4.0625 -5 C 4.59375 -4.832031 5.085938 -4.640625 5.546875 -4.421875 C 6.003906 -4.203125 6.382812 -3.9375 6.6875 -3.625 C 6.988281 -3.3125 7.140625 -2.894531 7.140625 -2.375 C 7.140625 -1.71875 6.898438 -1.238281 6.421875 -0.9375 C 5.953125 -0.632812 5.316406 -0.484375 4.515625 -0.484375 C 3.878906 -0.484375 3.367188 -0.566406 2.984375 -0.734375 C 2.609375 -0.898438 2.316406 -1.097656 2.109375 -1.328125 C 1.910156 -1.554688 1.773438 -1.796875 1.703125 -2.046875 C 1.640625 -2.296875 1.601562 -2.503906 1.59375 -2.671875 Z M 0.5625 -2.671875 "/></g></g></g><g fill="#86631f" fill-opacity="1"><g transform="translate(189.916297, 238.617464)"><g/></g></g><g fill="#86631f" fill-opacity="1"><g transform="translate(199.793235, 238.617464)"><g><path d="M 7.671875 -0.90625 C 7.054688 -0.457031 6.503906 -0.164062 6.015625 -0.03125 C 5.523438 0.101562 5.078125 0.171875 4.671875 0.171875 C 4.054688 0.171875 3.515625 0.0859375 3.046875 -0.078125 C 2.578125 -0.242188 2.179688 -0.460938 1.859375 -0.734375 C 1.546875 -1.015625 1.304688 -1.332031 1.140625 -1.6875 C 0.984375 -2.039062 0.90625 -2.398438 0.90625 -2.765625 C 0.90625 -3.148438 0.976562 -3.503906 1.125 -3.828125 C 1.269531 -4.148438 1.46875 -4.445312 1.71875 -4.71875 C 1.976562 -5 2.28125 -5.25 2.625 -5.46875 C 2.96875 -5.695312 3.34375 -5.910156 3.75 -6.109375 C 3.425781 -6.554688 3.148438 -6.96875 2.921875 -7.34375 C 2.691406 -7.726562 2.578125 -8.128906 2.578125 -8.546875 C 2.578125 -8.796875 2.617188 -9.054688 2.703125 -9.328125 C 2.796875 -9.597656 2.9375 -9.835938 3.125 -10.046875 C 3.3125 -10.253906 3.546875 -10.425781 3.828125 -10.5625 C 4.117188 -10.695312 4.460938 -10.765625 4.859375 -10.765625 C 5.171875 -10.765625 5.460938 -10.710938 5.734375 -10.609375 C 6.015625 -10.515625 6.253906 -10.367188 6.453125 -10.171875 C 6.648438 -9.984375 6.804688 -9.753906 6.921875 -9.484375 C 7.046875 -9.222656 7.109375 -8.925781 7.109375 -8.59375 C 7.109375 -8.175781 6.960938 -7.757812 6.671875 -7.34375 C 6.390625 -6.9375 5.898438 -6.566406 5.203125 -6.234375 L 8.203125 -2.28125 C 8.503906 -2.6875 8.734375 -3.144531 8.890625 -3.65625 C 9.054688 -4.175781 9.15625 -4.84375 9.1875 -5.65625 L 10.359375 -5.65625 C 10.316406 -5.101562 10.21875 -4.609375 10.0625 -4.171875 C 9.90625 -3.742188 9.734375 -3.363281 9.546875 -3.03125 C 9.359375 -2.695312 9.175781 -2.421875 9 -2.203125 C 8.820312 -1.992188 8.6875 -1.835938 8.59375 -1.734375 L 9.96875 0 L 8.375 0 Z M 4.9375 -10.109375 C 4.71875 -10.109375 4.53125 -10.066406 4.375 -9.984375 C 4.21875 -9.910156 4.085938 -9.8125 3.984375 -9.6875 C 3.890625 -9.570312 3.816406 -9.4375 3.765625 -9.28125 C 3.722656 -9.132812 3.703125 -8.988281 3.703125 -8.84375 C 3.703125 -8.488281 3.8125 -8.140625 4.03125 -7.796875 C 4.25 -7.460938 4.519531 -7.09375 4.84375 -6.6875 C 4.976562 -6.757812 5.125 -6.859375 5.28125 -6.984375 C 5.4375 -7.109375 5.578125 -7.253906 5.703125 -7.421875 C 5.835938 -7.585938 5.945312 -7.773438 6.03125 -7.984375 C 6.125 -8.203125 6.171875 -8.4375 6.171875 -8.6875 C 6.171875 -8.820312 6.148438 -8.972656 6.109375 -9.140625 C 6.066406 -9.304688 6 -9.457031 5.90625 -9.59375 C 5.8125 -9.738281 5.6875 -9.859375 5.53125 -9.953125 C 5.375 -10.054688 5.175781 -10.109375 4.9375 -10.109375 Z M 4.125 -5.578125 C 3.382812 -5.191406 2.875 -4.8125 2.59375 -4.4375 C 2.320312 -4.070312 2.1875 -3.660156 2.1875 -3.203125 C 2.1875 -2.785156 2.269531 -2.414062 2.4375 -2.09375 C 2.613281 -1.78125 2.835938 -1.515625 3.109375 -1.296875 C 3.390625 -1.078125 3.695312 -0.910156 4.03125 -0.796875 C 4.375 -0.679688 4.710938 -0.625 5.046875 -0.625 C 5.128906 -0.625 5.253906 -0.628906 5.421875 -0.640625 C 5.585938 -0.660156 5.773438 -0.691406 5.984375 -0.734375 C 6.191406 -0.785156 6.410156 -0.863281 6.640625 -0.96875 C 6.867188 -1.070312 7.085938 -1.210938 7.296875 -1.390625 Z M 4.125 -5.578125 "/></g></g></g><g fill="#86631f" fill-opacity="1"><g transform="translate(215.043527, 238.617464)"><g/></g></g><g fill="#86631f" fill-opacity="1"><g transform="translate(224.920465, 238.617464)"><g><path d="M 4.703125 -10.578125 L 4.703125 -2.953125 C 4.703125 -2.703125 4.691406 -2.429688 4.671875 -2.140625 C 4.660156 -1.859375 4.601562 -1.59375 4.5 -1.34375 C 4.394531 -1.101562 4.238281 -0.898438 4.03125 -0.734375 C 3.832031 -0.566406 3.539062 -0.484375 3.15625 -0.484375 C 2.820312 -0.484375 2.546875 -0.539062 2.328125 -0.65625 C 2.117188 -0.78125 1.945312 -0.929688 1.8125 -1.109375 C 1.6875 -1.296875 1.597656 -1.492188 1.546875 -1.703125 C 1.492188 -1.910156 1.46875 -2.09375 1.46875 -2.25 L 0.15625 -2.25 C 0.175781 -1.476562 0.425781 -0.878906 0.90625 -0.453125 C 1.382812 -0.0234375 2.109375 0.1875 3.078125 0.1875 C 3.773438 0.1875 4.320312 0.0820312 4.71875 -0.125 C 5.125 -0.332031 5.425781 -0.59375 5.625 -0.90625 C 5.820312 -1.226562 5.945312 -1.578125 6 -1.953125 C 6.050781 -2.328125 6.078125 -2.671875 6.078125 -2.984375 L 6.078125 -10.578125 Z M 4.703125 -10.578125 "/></g></g></g><g fill="#86631f" fill-opacity="1"><g transform="translate(237.393517, 238.617464)"><g><path d="M 1.8125 -10.578125 L 1.8125 0 L 8.640625 0 L 8.640625 -0.828125 L 3.1875 -0.828125 L 3.1875 -5.265625 L 7.875 -5.265625 L 7.875 -5.953125 L 3.1875 -5.953125 L 3.1875 -9.75 L 8.640625 -9.75 L 8.640625 -10.578125 Z M 1.8125 -10.578125 "/></g></g></g><g fill="#86631f" fill-opacity="1"><g transform="translate(251.074069, 238.617464)"><g><path d="M 0.453125 -10.578125 L 4.203125 0 L 5.109375 0 L 8 -8.265625 L 8.0625 -8.265625 L 10.859375 0 L 11.75 0 L 15.5 -10.578125 L 14.8125 -10.578125 L 11.671875 -1.75 L 11.625 -1.75 L 8.671875 -10.578125 L 8.015625 -10.578125 L 5.015625 -1.796875 L 4.953125 -1.796875 L 1.84375 -10.578125 Z M 0.453125 -10.578125 "/></g></g></g><g fill="#86631f" fill-opacity="1"><g transform="translate(271.607149, 238.617464)"><g><path d="M 1.8125 -10.578125 L 1.8125 0 L 8.640625 0 L 8.640625 -0.828125 L 3.1875 -0.828125 L 3.1875 -5.265625 L 7.875 -5.265625 L 7.875 -5.953125 L 3.1875 -5.953125 L 3.1875 -9.75 L 8.640625 -9.75 L 8.640625 -10.578125 Z M 1.8125 -10.578125 "/></g></g></g><g fill="#86631f" fill-opacity="1"><g transform="translate(285.287713, 238.617464)"><g><path d="M 1.8125 0 L 1.8125 -10.578125 L 3.1875 -10.578125 L 3.1875 -0.828125 L 8.640625 -0.828125 L 8.640625 0 Z M 1.8125 0 "/></g></g></g><g fill="#86631f" fill-opacity="1"><g transform="translate(298.968277, 238.617464)"><g><path d="M 1.8125 -10.578125 L 1.8125 0 L 3.1875 0 L 3.1875 -4.671875 L 3.859375 -4.671875 C 4.140625 -4.671875 4.367188 -4.644531 4.546875 -4.59375 C 4.734375 -4.539062 4.898438 -4.453125 5.046875 -4.328125 C 5.203125 -4.210938 5.347656 -4.054688 5.484375 -3.859375 C 5.617188 -3.671875 5.773438 -3.4375 5.953125 -3.15625 L 7.140625 -1.390625 C 7.296875 -1.160156 7.445312 -0.945312 7.59375 -0.75 C 7.738281 -0.5625 7.894531 -0.398438 8.0625 -0.265625 C 8.238281 -0.128906 8.429688 -0.0195312 8.640625 0.0625 C 8.859375 0.144531 9.117188 0.1875 9.421875 0.1875 C 9.648438 0.1875 9.832031 0.175781 9.96875 0.15625 C 10.113281 0.132812 10.253906 0.0820312 10.390625 0 L 10.390625 -0.5625 C 10.335938 -0.550781 10.285156 -0.539062 10.234375 -0.53125 C 10.191406 -0.53125 10.144531 -0.53125 10.09375 -0.53125 C 9.882812 -0.53125 9.695312 -0.554688 9.53125 -0.609375 C 9.375 -0.671875 9.222656 -0.757812 9.078125 -0.875 C 8.941406 -1 8.804688 -1.144531 8.671875 -1.3125 C 8.535156 -1.476562 8.398438 -1.664062 8.265625 -1.875 C 7.835938 -2.488281 7.507812 -2.976562 7.28125 -3.34375 C 7.050781 -3.707031 6.867188 -3.988281 6.734375 -4.1875 C 6.597656 -4.394531 6.484375 -4.546875 6.390625 -4.640625 C 6.304688 -4.734375 6.207031 -4.804688 6.09375 -4.859375 L 5.9375 -4.9375 L 5.9375 -5 C 6.414062 -5.03125 6.828125 -5.132812 7.171875 -5.3125 C 7.523438 -5.5 7.8125 -5.726562 8.03125 -6 C 8.257812 -6.269531 8.421875 -6.5625 8.515625 -6.875 C 8.617188 -7.195312 8.671875 -7.507812 8.671875 -7.8125 C 8.671875 -8.082031 8.617188 -8.378906 8.515625 -8.703125 C 8.410156 -9.023438 8.226562 -9.320312 7.96875 -9.59375 C 7.707031 -9.875 7.351562 -10.109375 6.90625 -10.296875 C 6.46875 -10.484375 5.914062 -10.578125 5.25 -10.578125 Z M 3.1875 -9.90625 L 4.71875 -9.90625 C 5.09375 -9.90625 5.429688 -9.847656 5.734375 -9.734375 C 6.046875 -9.628906 6.3125 -9.476562 6.53125 -9.28125 C 6.757812 -9.082031 6.929688 -8.847656 7.046875 -8.578125 C 7.160156 -8.304688 7.21875 -8.007812 7.21875 -7.6875 C 7.21875 -7.414062 7.164062 -7.140625 7.0625 -6.859375 C 6.957031 -6.585938 6.796875 -6.335938 6.578125 -6.109375 C 6.367188 -5.878906 6.109375 -5.691406 5.796875 -5.546875 C 5.492188 -5.410156 5.144531 -5.34375 4.75 -5.34375 L 3.1875 -5.34375 Z M 3.1875 -9.90625 "/></g></g></g><g fill="#86631f" fill-opacity="1"><g transform="translate(314.399695, 238.617464)"><g><path d="M 0.453125 -10.578125 L 4.109375 -4 L 4.109375 0 L 5.484375 0 L 5.484375 -4.140625 L 9.203125 -10.578125 L 8.390625 -10.578125 L 5.15625 -5 L 5.09375 -5 L 2.015625 -10.578125 Z M 0.453125 -10.578125 "/></g></g></g><g fill="#a8815b" fill-opacity="0.4"><g transform="translate(59.239877, 202.545932)"><g><path d="M 103.1875 11.53125 C 104.40625 12.238281 105.785156 12.90625 107.328125 13.53125 C 108.867188 14.15625 110.359375 14.59375 111.796875 14.84375 C 113.234375 15.101562 114.816406 15.234375 116.546875 15.234375 C 118.273438 15.234375 120.0625 15.015625 121.90625 14.578125 L 122.34375 15.6875 C 118.21875 17.664062 114.0625 18.65625 109.875 18.65625 C 100.226562 18.65625 90.398438 13.320312 80.390625 2.65625 L 28.046875 -52.890625 L 28.046875 -7.734375 C 28.046875 -5.890625 28.707031 -4.320312 30.03125 -3.03125 C 31.351562 -1.75 32.9375 -1.109375 34.78125 -1.109375 L 36.875 -1.109375 L 36.875 0 L 3.421875 0 L 3.421875 -1.109375 L 5.40625 -1.109375 C 7.320312 -1.109375 8.941406 -1.75 10.265625 -3.03125 C 11.585938 -4.320312 12.25 -5.925781 12.25 -7.84375 L 12.25 -69.78125 C 8.644531 -73.90625 5.921875 -76.796875 4.078125 -78.453125 C 2.242188 -80.109375 0.609375 -81.488281 -0.828125 -82.59375 C -2.265625 -83.695312 -3.644531 -84.617188 -4.96875 -85.359375 C -8.0625 -87.117188 -10.546875 -88.144531 -12.421875 -88.4375 C -14.296875 -88.738281 -16.0625 -88.890625 -17.71875 -88.890625 C -19.375 -88.890625 -21.160156 -88.554688 -23.078125 -87.890625 L -23.515625 -89 C -19.472656 -91.351562 -15.316406 -92.53125 -11.046875 -92.53125 C -1.765625 -92.53125 8.0625 -87.007812 18.4375 -75.96875 L 67.796875 -23.515625 L 67.796875 -69.453125 C 67.722656 -71.367188 67.023438 -72.96875 65.703125 -74.25 C 64.378906 -75.539062 62.796875 -76.1875 60.953125 -76.1875 L 58.96875 -76.1875 L 58.96875 -77.296875 L 92.421875 -77.296875 L 92.421875 -76.1875 L 90.328125 -76.1875 C 88.484375 -76.1875 86.898438 -75.539062 85.578125 -74.25 C 84.253906 -72.96875 83.554688 -71.40625 83.484375 -69.5625 L 83.484375 -6.734375 L 85.25 -4.96875 C 85.6875 -4.53125 86.363281 -3.773438 87.28125 -2.703125 C 88.207031 -1.640625 89.035156 -0.722656 89.765625 0.046875 C 90.503906 0.828125 91.441406 1.804688 92.578125 2.984375 C 93.722656 4.160156 94.789062 5.1875 95.78125 6.0625 C 96.78125 6.945312 97.957031 7.90625 99.3125 8.9375 C 100.675781 9.96875 101.96875 10.832031 103.1875 11.53125 Z M 103.1875 11.53125 "/></g></g></g><g fill="#a8815b" fill-opacity="0.4"><g transform="translate(167.666827, 202.545932)"><g><path d="M 44.609375 -1.109375 L 46.046875 -1.109375 L 46.046875 0 L 12.484375 0 L 12.484375 -1.109375 L 13.90625 -1.109375 C 15.820312 -1.109375 17.460938 -1.785156 18.828125 -3.140625 C 20.191406 -4.503906 20.910156 -6.144531 20.984375 -8.0625 L 20.984375 -72.765625 L 10.484375 -72.328125 C 3.566406 -72.035156 0.109375 -69.457031 0.109375 -64.59375 C 0.109375 -62.601562 0.785156 -60.925781 2.140625 -59.5625 C 3.503906 -58.207031 5.40625 -57.53125 7.84375 -57.53125 C 8.0625 -57.53125 8.28125 -57.53125 8.5 -57.53125 L 8.5 -56.875 C 7.03125 -56.351562 5.78125 -56.09375 4.75 -56.09375 C 1.4375 -56.09375 -1.101562 -57.269531 -2.875 -59.625 C -4.125 -61.25 -4.75 -63.09375 -4.75 -65.15625 C -4.75 -68.382812 -3.476562 -71.046875 -0.9375 -73.140625 C 1.601562 -75.242188 5.519531 -76.484375 10.8125 -76.859375 C 11.769531 -76.929688 14.863281 -77.078125 20.09375 -77.296875 C 32.019531 -77.734375 40.671875 -78.46875 46.046875 -79.5 L 46.265625 -78.40625 C 43.097656 -77.882812 40.867188 -76.8125 39.578125 -75.1875 C 38.296875 -73.570312 37.617188 -71.179688 37.546875 -68.015625 L 37.546875 -8.0625 C 37.617188 -6.144531 38.332031 -4.503906 39.6875 -3.140625 C 41.050781 -1.785156 42.691406 -1.109375 44.609375 -1.109375 Z M 44.609375 -1.109375 "/></g></g></g><g fill="#a8815b" fill-opacity="0.4"><g transform="translate(230.934431, 202.545932)"><g><path d="M 6.078125 -1.109375 C 7.984375 -1.109375 9.617188 -1.785156 10.984375 -3.140625 C 12.347656 -4.503906 13.066406 -6.144531 13.140625 -8.0625 L 13.140625 -69.34375 C 13.066406 -71.988281 11.851562 -73.976562 9.5 -75.3125 C 8.46875 -75.894531 7.328125 -76.1875 6.078125 -76.1875 L 4.640625 -76.1875 L 4.640625 -77.296875 L 38.203125 -77.296875 L 38.09375 -76.1875 L 36.765625 -76.1875 C 34.859375 -76.1875 33.203125 -75.523438 31.796875 -74.203125 C 30.398438 -72.878906 29.703125 -71.257812 29.703125 -69.34375 L 29.703125 -8.0625 C 29.703125 -6.144531 30.398438 -4.503906 31.796875 -3.140625 C 33.203125 -1.785156 34.859375 -1.109375 36.765625 -1.109375 L 38.09375 -1.109375 L 38.203125 0 L 4.640625 0 L 4.640625 -1.109375 Z M 115.71875 18.765625 C 110.34375 21.566406 105.445312 22.96875 101.03125 22.96875 C 96.613281 22.96875 92.640625 22.34375 89.109375 21.09375 C 80.347656 17.925781 71.40625 10.675781 62.28125 -0.65625 L 33.234375 -36.4375 L 59.40625 -71.109375 C 60 -71.847656 60.296875 -72.507812 60.296875 -73.09375 C 60.296875 -73.6875 60.179688 -74.203125 59.953125 -74.640625 C 59.367188 -75.742188 58.34375 -76.296875 56.875 -76.296875 L 55.765625 -76.296875 L 55.765625 -77.296875 L 81.046875 -77.296875 L 81.046875 -76.296875 L 80.609375 -76.296875 C 75.671875 -76.296875 71.660156 -74.53125 68.578125 -71 L 47.046875 -45.390625 L 77.078125 -8.0625 C 83.773438 0.769531 90.066406 7.171875 95.953125 11.140625 C 101.847656 15.117188 108.398438 17.296875 115.609375 17.671875 Z M 115.71875 18.765625 "/></g></g></g><g fill="#86631f" fill-opacity="1"><g transform="translate(54.360078, 197.666135)"><g><path d="M 103.1875 11.53125 C 104.40625 12.238281 105.785156 12.90625 107.328125 13.53125 C 108.867188 14.15625 110.359375 14.59375 111.796875 14.84375 C 113.234375 15.101562 114.816406 15.234375 116.546875 15.234375 C 118.273438 15.234375 120.0625 15.015625 121.90625 14.578125 L 122.34375 15.6875 C 118.21875 17.664062 114.0625 18.65625 109.875 18.65625 C 100.226562 18.65625 90.398438 13.320312 80.390625 2.65625 L 28.046875 -52.890625 L 28.046875 -7.734375 C 28.046875 -5.890625 28.707031 -4.320312 30.03125 -3.03125 C 31.351562 -1.75 32.9375 -1.109375 34.78125 -1.109375 L 36.875 -1.109375 L 36.875 0 L 3.421875 0 L 3.421875 -1.109375 L 5.40625 -1.109375 C 7.320312 -1.109375 8.941406 -1.75 10.265625 -3.03125 C 11.585938 -4.320312 12.25 -5.925781 12.25 -7.84375 L 12.25 -69.78125 C 8.644531 -73.90625 5.921875 -76.796875 4.078125 -78.453125 C 2.242188 -80.109375 0.609375 -81.488281 -0.828125 -82.59375 C -2.265625 -83.695312 -3.644531 -84.617188 -4.96875 -85.359375 C -8.0625 -87.117188 -10.546875 -88.144531 -12.421875 -88.4375 C -14.296875 -88.738281 -16.0625 -88.890625 -17.71875 -88.890625 C -19.375 -88.890625 -21.160156 -88.554688 -23.078125 -87.890625 L -23.515625 -89 C -19.472656 -91.351562 -15.316406 -92.53125 -11.046875 -92.53125 C -1.765625 -92.53125 8.0625 -87.007812 18.4375 -75.96875 L 67.796875 -23.515625 L 67.796875 -69.453125 C 67.722656 -71.367188 67.023438 -72.96875 65.703125 -74.25 C 64.378906 -75.539062 62.796875 -76.1875 60.953125 -76.1875 L 58.96875 -76.1875 L 58.96875 -77.296875 L 92.421875 -77.296875 L 92.421875 -76.1875 L 90.328125 -76.1875 C 88.484375 -76.1875 86.898438 -75.539062 85.578125 -74.25 C 84.253906 -72.96875 83.554688 -71.40625 83.484375 -69.5625 L 83.484375 -6.734375 L 85.25 -4.96875 C 85.6875 -4.53125 86.363281 -3.773438 87.28125 -2.703125 C 88.207031 -1.640625 89.035156 -0.722656 89.765625 0.046875 C 90.503906 0.828125 91.441406 1.804688 92.578125 2.984375 C 93.722656 4.160156 94.789062 5.1875 95.78125 6.0625 C 96.78125 6.945312 97.957031 7.90625 99.3125 8.9375 C 100.675781 9.96875 101.96875 10.832031 103.1875 11.53125 Z M 103.1875 11.53125 "/></g></g></g><g fill="#86631f" fill-opacity="1"><g transform="translate(162.787027, 197.666135)"><g><path d="M 44.609375 -1.109375 L 46.046875 -1.109375 L 46.046875 0 L 12.484375 0 L 12.484375 -1.109375 L 13.90625 -1.109375 C 15.820312 -1.109375 17.460938 -1.785156 18.828125 -3.140625 C 20.191406 -4.503906 20.910156 -6.144531 20.984375 -8.0625 L 20.984375 -72.765625 L 10.484375 -72.328125 C 3.566406 -72.035156 0.109375 -69.457031 0.109375 -64.59375 C 0.109375 -62.601562 0.785156 -60.925781 2.140625 -59.5625 C 3.503906 -58.207031 5.40625 -57.53125 7.84375 -57.53125 C 8.0625 -57.53125 8.28125 -57.53125 8.5 -57.53125 L 8.5 -56.875 C 7.03125 -56.351562 5.78125 -56.09375 4.75 -56.09375 C 1.4375 -56.09375 -1.101562 -57.269531 -2.875 -59.625 C -4.125 -61.25 -4.75 -63.09375 -4.75 -65.15625 C -4.75 -68.382812 -3.476562 -71.046875 -0.9375 -73.140625 C 1.601562 -75.242188 5.519531 -76.484375 10.8125 -76.859375 C 11.769531 -76.929688 14.863281 -77.078125 20.09375 -77.296875 C 32.019531 -77.734375 40.671875 -78.46875 46.046875 -79.5 L 46.265625 -78.40625 C 43.097656 -77.882812 40.867188 -76.8125 39.578125 -75.1875 C 38.296875 -73.570312 37.617188 -71.179688 37.546875 -68.015625 L 37.546875 -8.0625 C 37.617188 -6.144531 38.332031 -4.503906 39.6875 -3.140625 C 41.050781 -1.785156 42.691406 -1.109375 44.609375 -1.109375 Z M 44.609375 -1.109375 "/></g></g></g><g fill="#86631f" fill-opacity="1"><g transform="translate(226.054632, 197.666135)"><g><path d="M 6.078125 -1.109375 C 7.984375 -1.109375 9.617188 -1.785156 10.984375 -3.140625 C 12.347656 -4.503906 13.066406 -6.144531 13.140625 -8.0625 L 13.140625 -69.34375 C 13.066406 -71.988281 11.851562 -73.976562 9.5 -75.3125 C 8.46875 -75.894531 7.328125 -76.1875 6.078125 -76.1875 L 4.640625 -76.1875 L 4.640625 -77.296875 L 38.203125 -77.296875 L 38.09375 -76.1875 L 36.765625 -76.1875 C 34.859375 -76.1875 33.203125 -75.523438 31.796875 -74.203125 C 30.398438 -72.878906 29.703125 -71.257812 29.703125 -69.34375 L 29.703125 -8.0625 C 29.703125 -6.144531 30.398438 -4.503906 31.796875 -3.140625 C 33.203125 -1.785156 34.859375 -1.109375 36.765625 -1.109375 L 38.09375 -1.109375 L 38.203125 0 L 4.640625 0 L 4.640625 -1.109375 Z M 115.71875 18.765625 C 110.34375 21.566406 105.445312 22.96875 101.03125 22.96875 C 96.613281 22.96875 92.640625 22.34375 89.109375 21.09375 C 80.347656 17.925781 71.40625 10.675781 62.28125 -0.65625 L 33.234375 -36.4375 L 59.40625 -71.109375 C 60 -71.847656 60.296875 -72.507812 60.296875 -73.09375 C 60.296875 -73.6875 60.179688 -74.203125 59.953125 -74.640625 C 59.367188 -75.742188 58.34375 -76.296875 56.875 -76.296875 L 55.765625 -76.296875 L 55.765625 -77.296875 L 81.046875 -77.296875 L 81.046875 -76.296875 L 80.609375 -76.296875 C 75.671875 -76.296875 71.660156 -74.53125 68.578125 -71 L 47.046875 -45.390625 L 77.078125 -8.0625 C 83.773438 0.769531 90.066406 7.171875 95.953125 11.140625 C 101.847656 15.117188 108.398438 17.296875 115.609375 17.671875 Z M 115.71875 18.765625 "/></g></g></g></svg>